# xmcd CD database file
#
# Track frame offsets:
#	150
#	23018
#	50252
#	71760
#	117142
#	139470
#	164667
#	189721
#	214726
#	233845
#	253390
#
# Disc length: 3862 seconds
#
# Revision: 0
# Processed by: cddbd v1.5.1PL2 Copyright (c) Steve Scherf et al.
# Submitted via: CDex 1.60beta1
#
DISCID=a70f140b
DTITLE=Fabrizio Bosso and Flavio Boltro Quintet - Trumpet Legacy
DYEAR=2005
DGENRE=Jazz
TTITLE0=Moontrane
TTITLE1=Woman's Glance
TTITLE2=Daahoud
TTITLE3=Little Sunflower
TTITLE4=Delfeayo's Dilemma
TTITLE5=Everything Happens To Me
TTITLE6=Big Butter And Eggman
TTITLE7=Whoopin' Blues
TTITLE8=Lotus Blossom
TTITLE9=First Smile - Jazz A Doc
TTITLE10=Eighty One
EXTD=YEAR: 2005
EXTT0=
EXTT1=
EXTT2=
EXTT3=
EXTT4=
EXTT5=
EXTT6=
EXTT7=
EXTT8=
EXTT9=
EXTT10=
PLAYORDER=
